<?xml version="1.0" encoding="UTF-8"?>
<svg id="flop_x5F_Primary_x5F_Lockup_x5F_base_x5F_Chip_x5F_accent" xmlns="http://www.w3.org/2000/svg" version="1.1" viewBox="0 0 2000 1000">
  <!-- Generator: Adobe Illustrator 30.6.0, SVG Export Plug-In . SVG Version: 2.1.4 Build 109)  -->
  <defs>
    <style>
      .st0 {
        fill: #11172a;
      }

      .st1 {
        fill: #00b4d8;
      }
    </style>
  </defs>
  <g>
    <path class="st0" d="M192.3,451.29c-4.22,0-8.44-4.22-8.44-8.44v-25.95c0-4.82,4.22-8.44,8.44-8.44h25.95c4.82,0,8.44,3.62,8.44,8.44v25.95c0,4.22-3.62,8.44-8.44,8.44h-25.95ZM192.3,497.78c-4.22,0-8.44-3.62-8.44-8.44v-25.95c0-4.82,4.22-8.44,8.44-8.44h25.95c4.82,0,8.44,3.62,8.44,8.44v25.95c0,4.82-3.62,8.44-8.44,8.44h-25.95ZM192.3,544.26c-4.22,0-8.44-3.62-8.44-8.44v-25.95c0-4.22,4.22-8.44,8.44-8.44h25.95c4.82,0,8.44,4.22,8.44,8.44v25.95c0,4.82-3.62,8.44-8.44,8.44h-25.95ZM192.3,590.75c-4.22,0-8.44-3.62-8.44-8.44v-25.95c0-4.22,4.22-8.44,8.44-8.44h25.95c4.82,0,8.44,4.22,8.44,8.44v25.95c0,4.82-3.62,8.44-8.44,8.44h-25.95ZM192.3,637.23c-4.22,0-8.44-3.62-8.44-8.44v-25.95c0-4.22,4.22-8.44,8.44-8.44h25.95c4.82,0,8.44,4.22,8.44,8.44v25.95c0,4.82-3.62,8.44-8.44,8.44h-25.95ZM192.3,683.72c-4.22,0-8.44-3.62-8.44-8.44v-25.95c0-4.22,4.22-8.44,8.44-8.44h25.95c4.82,0,8.44,4.22,8.44,8.44v25.95c0,4.82-3.62,8.44-8.44,8.44h-25.95ZM192.3,404.8c-1.8,0-3.62-1.82-3.62-3.62,0-.6.6-1.82,1.2-2.42l30.8-30.8c1.2-1.2,3.62-1.2,4.82,0,.6.6,1.2,1.2,1.2,2.42v25.95c0,4.82-4.22,8.44-8.44,8.44h-25.95v.02ZM239.41,404.8c-4.82,0-8.44-4.22-8.44-8.44v-25.95c0-4.82,3.62-8.44,8.44-8.44h25.95c4.22,0,8.44,3.62,8.44,8.44v25.95c0,4.22-4.22,8.44-8.44,8.44h-25.95ZM239.41,451.29c-4.82,0-8.44-4.22-8.44-8.44v-25.95c0-4.82,3.62-8.44,8.44-8.44h25.95c4.22,0,8.44,3.62,8.44,8.44v25.95c0,4.22-4.22,8.44-8.44,8.44h-25.95ZM239.41,497.78c-4.82,0-8.44-3.62-8.44-8.44v-25.95c0-4.82,3.62-8.44,8.44-8.44h25.95c4.22,0,8.44,3.62,8.44,8.44v25.95c0,4.82-4.22,8.44-8.44,8.44h-25.95ZM239.41,544.26c-4.82,0-8.44-3.62-8.44-8.44v-25.95c0-4.22,3.62-8.44,8.44-8.44h25.95c4.22,0,8.44,4.22,8.44,8.44v25.95c0,4.82-4.22,8.44-8.44,8.44h-25.95ZM239.41,590.75c-4.82,0-8.44-3.62-8.44-8.44v-25.95c0-4.22,3.62-8.44,8.44-8.44h25.95c4.22,0,8.44,4.22,8.44,8.44v25.95c0,4.82-4.22,8.44-8.44,8.44h-25.95ZM239.41,637.23c-4.82,0-8.44-3.62-8.44-8.44v-25.95c0-4.22,3.62-8.44,8.44-8.44h25.95c4.22,0,8.44,4.22,8.44,8.44v25.95c0,4.82-4.22,8.44-8.44,8.44h-25.95ZM239.41,683.72c-4.82,0-8.44-3.62-8.44-8.44v-25.95c0-4.22,3.62-8.44,8.44-8.44h25.95c4.22,0,8.44,4.22,8.44,8.44v25.95c0,4.82-4.22,8.44-8.44,8.44h-25.95ZM239.41,358.29c-1.82,0-3.62-1.8-3.62-3.62,0-.6.6-1.8,1.2-2.42l30.8-30.8c1.2-1.2,3.62-1.2,4.82,0,.6.6,1.2,1.8,1.2,2.42v25.95c0,4.82-4.22,8.44-8.44,8.44h-25.95v.02ZM286.5,358.29c-4.82,0-8.44-4.22-8.44-8.44v-25.95c0-4.82,3.62-8.44,8.44-8.44h25.35c4.82,0,8.44,3.62,8.44,8.44v25.95c0,4.22-3.62,8.44-8.44,8.44h-25.35ZM286.5,404.8c-4.82,0-8.44-4.22-8.44-8.44v-25.95c0-4.82,3.62-8.44,8.44-8.44h25.35c4.82,0,8.44,3.62,8.44,8.44v25.95c0,4.22-3.62,8.44-8.44,8.44h-25.35ZM286.5,497.78c-4.82,0-8.44-3.62-8.44-8.44v-25.95c0-4.82,3.62-8.44,8.44-8.44h25.35c4.82,0,8.44,3.62,8.44,8.44v25.95c0,4.82-3.62,8.44-8.44,8.44h-25.35ZM286.5,544.26c-4.82,0-8.44-3.62-8.44-8.44v-25.95c0-4.22,3.62-8.44,8.44-8.44h25.35c4.82,0,8.44,4.22,8.44,8.44v25.95c0,4.82-3.62,8.44-8.44,8.44h-25.35ZM332.98,358.29c-4.22,0-8.44-4.22-8.44-8.44v-25.95c0-4.82,4.22-8.44,8.44-8.44h25.95c4.82,0,8.44,3.62,8.44,8.44v25.95c0,4.22-3.62,8.44-8.44,8.44h-25.95ZM332.98,404.8c-4.22,0-8.44-4.22-8.44-8.44v-25.95c0-4.82,4.22-8.44,8.44-8.44h25.95c4.82,0,8.44,3.62,8.44,8.44v25.95c0,4.22-3.62,8.44-8.44,8.44h-25.95ZM332.98,497.78c-4.22,0-8.44-3.62-8.44-8.44v-25.95c0-4.82,4.22-8.44,8.44-8.44h25.95c4.82,0,8.44,3.62,8.44,8.44v25.95c0,4.82-3.62,8.44-8.44,8.44h-25.95ZM332.98,544.26c-4.22,0-8.44-3.62-8.44-8.44v-25.95c0-4.22,4.22-8.44,8.44-8.44h25.95c4.82,0,8.44,4.22,8.44,8.44v25.95c0,4.82-3.62,8.44-8.44,8.44h-25.95ZM380.07,358.29c-4.82,0-8.44-4.22-8.44-8.44v-25.95c0-4.82,3.62-8.44,8.44-8.44h25.95c4.22,0,8.44,3.62,8.44,8.44v25.95c0,4.22-4.22,8.44-8.44,8.44h-25.95,0ZM380.07,404.8c-4.82,0-8.44-4.22-8.44-8.44v-25.95c0-4.82,3.62-8.44,8.44-8.44h25.95c4.22,0,8.44,3.62,8.44,8.44v25.95c0,4.22-4.22,8.44-8.44,8.44h-25.95,0ZM380.07,497.78c-4.82,0-8.44-3.62-8.44-8.44v-25.95c0-4.82,3.62-8.44,8.44-8.44h25.95c4.22,0,8.44,3.62,8.44,8.44v25.95c0,4.82-4.22,8.44-8.44,8.44h-25.95,0ZM380.07,544.26c-4.82,0-8.44-3.62-8.44-8.44v-25.95c0-4.22,3.62-8.44,8.44-8.44h25.95c4.22,0,8.44,4.22,8.44,8.44v25.95c0,4.82-4.22,8.44-8.44,8.44h-25.95,0ZM427.18,358.29c-4.82,0-8.44-4.22-8.44-8.44v-25.95c0-4.82,3.62-8.44,8.44-8.44h25.35c4.82,0,8.44,3.62,8.44,8.44v25.95c0,4.22-3.62,8.44-8.44,8.44h-25.35ZM427.18,404.8c-4.82,0-8.44-4.22-8.44-8.44v-25.95c0-4.82,3.62-8.44,8.44-8.44h25.35c4.82,0,8.44,3.62,8.44,8.44v25.95c0,4.22-3.62,8.44-8.44,8.44h-25.35ZM427.18,497.78c-4.82,0-8.44-3.62-8.44-8.44v-25.95c0-4.82,3.62-8.44,8.44-8.44h25.35c4.82,0,8.44,3.62,8.44,8.44v25.95c0,4.82-3.62,8.44-8.44,8.44h-25.35ZM427.18,544.26c-4.82,0-8.44-3.62-8.44-8.44v-25.95c0-4.22,3.62-8.44,8.44-8.44h25.35c4.82,0,8.44,4.22,8.44,8.44v25.95c0,4.82-3.62,8.44-8.44,8.44h-25.35ZM474.27,358.29c-4.82,0-8.44-4.22-8.44-8.44v-25.95c0-4.82,3.62-8.44,8.44-8.44h25.35c4.82,0,8.44,3.62,8.44,8.44v25.95c0,4.22-3.62,8.44-8.44,8.44h-25.35ZM474.27,404.8c-4.82,0-8.44-4.22-8.44-8.44v-25.95c0-4.82,3.62-8.44,8.44-8.44h25.35c4.82,0,8.44,3.62,8.44,8.44v25.95c0,4.22-3.62,8.44-8.44,8.44h-25.35ZM520.75,358.29c-4.22,0-8.44-4.22-8.44-8.44v-25.95c0-4.82,4.22-8.44,8.44-8.44h25.95c4.82,0,8.44,3.62,8.44,8.44v25.95c0,4.22-3.62,8.44-8.44,8.44h-25.95ZM520.75,404.8c-4.22,0-8.44-4.22-8.44-8.44v-25.95c0-4.82,4.22-8.44,8.44-8.44h25.95c4.82,0,8.44,3.62,8.44,8.44v25.95c0,4.22-3.62,8.44-8.44,8.44h-25.95Z"/>
    <path class="st0" d="M607.68,358.29c-4.22,0-8.44-4.22-8.44-8.44v-25.95c0-4.82,4.22-8.44,8.44-8.44h25.95c4.82,0,8.44,3.62,8.44,8.44v25.95c0,4.22-3.62,8.44-8.44,8.44h-25.95ZM607.68,404.8c-4.22,0-8.44-4.22-8.44-8.44v-25.95c0-4.82,4.22-8.44,8.44-8.44h25.95c4.82,0,8.44,3.62,8.44,8.44v25.95c0,4.22-3.62,8.44-8.44,8.44h-25.95ZM607.68,451.29c-4.22,0-8.44-4.22-8.44-8.44v-25.95c0-4.82,4.22-8.44,8.44-8.44h25.95c4.82,0,8.44,3.62,8.44,8.44v25.95c0,4.22-3.62,8.44-8.44,8.44h-25.95ZM607.68,497.78c-4.22,0-8.44-3.62-8.44-8.44v-25.95c0-4.82,4.22-8.44,8.44-8.44h25.95c4.82,0,8.44,3.62,8.44,8.44v25.95c0,4.82-3.62,8.44-8.44,8.44h-25.95ZM607.68,544.26c-4.22,0-8.44-3.62-8.44-8.44v-25.95c0-4.22,4.22-8.44,8.44-8.44h25.95c4.82,0,8.44,4.22,8.44,8.44v25.95c0,4.82-3.62,8.44-8.44,8.44h-25.95ZM607.68,590.75c-4.22,0-8.44-3.62-8.44-8.44v-25.95c0-4.22,4.22-8.44,8.44-8.44h25.95c4.82,0,8.44,4.22,8.44,8.44v25.95c0,4.82-3.62,8.44-8.44,8.44h-25.95ZM605.26,600.41c-1.2-1.2-1.2-3.62,0-4.82.6-.6,1.2-1.2,2.42-1.2h25.95c4.82,0,8.44,3.62,8.44,8.44v25.95c0,1.82-1.82,3.62-3.62,3.62-.6,0-1.82-.6-2.42-1.2l-30.8-30.8h.02ZM654.77,358.29c-4.82,0-8.44-4.22-8.44-8.44v-25.95c0-4.82,3.62-8.44,8.44-8.44h25.95c4.22,0,8.44,3.62,8.44,8.44v25.95c0,4.22-4.22,8.44-8.44,8.44h-25.95ZM654.77,404.8c-4.82,0-8.44-4.22-8.44-8.44v-25.95c0-4.82,3.62-8.44,8.44-8.44h25.95c4.22,0,8.44,3.62,8.44,8.44v25.95c0,4.22-4.22,8.44-8.44,8.44h-25.95ZM654.77,451.29c-4.82,0-8.44-4.22-8.44-8.44v-25.95c0-4.82,3.62-8.44,8.44-8.44h25.95c4.22,0,8.44,3.62,8.44,8.44v25.95c0,4.22-4.22,8.44-8.44,8.44h-25.95ZM654.77,497.78c-4.82,0-8.44-3.62-8.44-8.44v-25.95c0-4.82,3.62-8.44,8.44-8.44h25.95c4.22,0,8.44,3.62,8.44,8.44v25.95c0,4.82-4.22,8.44-8.44,8.44h-25.95ZM654.77,544.26c-4.82,0-8.44-3.62-8.44-8.44v-25.95c0-4.22,3.62-8.44,8.44-8.44h25.95c4.22,0,8.44,4.22,8.44,8.44v25.95c0,4.82-4.22,8.44-8.44,8.44h-25.95ZM654.77,590.75c-4.82,0-8.44-3.62-8.44-8.44v-25.95c0-4.22,3.62-8.44,8.44-8.44h25.95c4.22,0,8.44,4.22,8.44,8.44v25.95c0,4.82-4.22,8.44-8.44,8.44h-25.95ZM654.77,637.23c-4.82,0-8.44-3.62-8.44-8.44v-25.95c0-4.22,3.62-8.44,8.44-8.44h25.95c4.22,0,8.44,4.22,8.44,8.44v25.95c0,4.82-4.22,8.44-8.44,8.44h-25.95ZM652.37,646.9c-1.2-1.2-1.2-3.62,0-4.82.6-.6,1.2-.6,2.42-.6h25.95c4.82,0,8.44,3.62,8.44,7.84v25.95c0,1.8-1.8,3.62-3.62,3.62-.6,0-1.8-.6-2.42-1.2l-30.8-30.8h.02ZM701.88,637.23c-4.82,0-8.44-3.62-8.44-8.44v-25.95c0-4.22,3.62-8.44,8.44-8.44h25.35c4.82,0,8.44,4.22,8.44,8.44v25.95c0,4.82-3.62,8.44-8.44,8.44h-25.35ZM701.88,683.72c-4.82,0-8.44-3.62-8.44-8.44v-25.95c0-4.22,3.62-8.44,8.44-8.44h25.35c4.82,0,8.44,4.22,8.44,8.44v25.95c0,4.82-3.62,8.44-8.44,8.44h-25.35ZM748.36,637.23c-4.22,0-8.44-3.62-8.44-8.44v-25.95c0-4.22,4.22-8.44,8.44-8.44h25.95c4.82,0,8.44,4.22,8.44,8.44v25.95c0,4.82-3.62,8.44-8.44,8.44h-25.95ZM748.36,683.72c-4.22,0-8.44-3.62-8.44-8.44v-25.95c0-4.22,4.22-8.44,8.44-8.44h25.95c4.82,0,8.44,4.22,8.44,8.44v25.95c0,4.82-3.62,8.44-8.44,8.44h-25.95ZM795.45,637.23c-4.82,0-8.44-3.62-8.44-8.44v-25.95c0-4.22,3.62-8.44,8.44-8.44h25.95c4.22,0,8.44,4.22,8.44,8.44v25.95c0,4.82-4.22,8.44-8.44,8.44h-25.95ZM795.45,683.72c-4.82,0-8.44-3.62-8.44-8.44v-25.95c0-4.22,3.62-8.44,8.44-8.44h25.95c4.22,0,8.44,4.22,8.44,8.44v25.95c0,4.82-4.22,8.44-8.44,8.44h-25.95ZM842.54,637.23c-4.82,0-8.44-3.62-8.44-8.44v-25.95c0-4.22,3.62-8.44,8.44-8.44h25.35c4.82,0,8.44,4.22,8.44,8.44v25.95c0,4.82-3.62,8.44-8.44,8.44h-25.35ZM842.54,683.72c-4.82,0-8.44-3.62-8.44-8.44v-25.95c0-4.22,3.62-8.44,8.44-8.44h25.35c4.82,0,8.44,4.22,8.44,8.44v25.95c0,4.82-3.62,8.44-8.44,8.44h-25.35ZM889.65,637.23c-4.82,0-8.44-3.62-8.44-8.44v-25.95c0-4.22,3.62-8.44,8.44-8.44h25.35c4.82,0,8.44,4.22,8.44,8.44v25.95c0,4.82-3.62,8.44-8.44,8.44h-25.35ZM889.65,683.72c-4.82,0-8.44-3.62-8.44-8.44v-25.95c0-4.22,3.62-8.44,8.44-8.44h25.35c4.82,0,8.44,4.22,8.44,8.44v25.95c0,4.82-3.62,8.44-8.44,8.44h-25.35ZM936.13,637.23c-4.22,0-8.44-3.62-8.44-8.44v-25.95c0-4.22,4.22-8.44,8.44-8.44h25.95c4.22,0,8.44,4.22,8.44,8.44v25.95c0,4.82-4.22,8.44-8.44,8.44h-25.95ZM936.13,683.72c-4.22,0-8.44-3.62-8.44-8.44v-25.95c0-4.22,4.22-8.44,8.44-8.44h25.95c4.22,0,8.44,4.22,8.44,8.44v25.95c0,4.82-4.22,8.44-8.44,8.44h-25.95Z"/>
    <path class="st0" d="M1453.48,358.29c-4.22,0-8.44-4.22-8.44-8.44v-25.95c0-4.82,4.22-8.44,8.44-8.44h25.95c4.82,0,8.44,3.62,8.44,8.44v25.95c0,4.22-3.62,8.44-8.44,8.44h-25.95Z"/>
    <path class="st0" d="M1453.48,404.8c-4.22,0-8.44-4.22-8.44-8.44v-25.95c0-4.82,4.22-8.44,8.44-8.44h25.95c4.82,0,8.44,3.62,8.44,8.44v25.95c0,4.22-3.62,8.44-8.44,8.44h-25.95Z"/>
    <path class="st0" d="M1453.48,451.29c-4.22,0-8.44-4.22-8.44-8.44v-25.95c0-4.82,4.22-8.44,8.44-8.44h25.95c4.82,0,8.44,3.62,8.44,8.44v25.95c0,4.22-3.62,8.44-8.44,8.44h-25.95Z"/>
    <path class="st0" d="M1453.48,497.78c-4.22,0-8.44-3.62-8.44-8.44v-25.95c0-4.82,4.22-8.44,8.44-8.44h25.95c4.82,0,8.44,3.62,8.44,8.44v25.95c0,4.82-3.62,8.44-8.44,8.44h-25.95Z"/>
    <path class="st0" d="M1453.48,544.26c-4.22,0-8.44-3.62-8.44-8.44v-25.95c0-4.22,4.22-8.44,8.44-8.44h25.95c4.82,0,8.44,4.22,8.44,8.44v25.95c0,4.82-3.62,8.44-8.44,8.44h-25.95Z"/>
    <path class="st0" d="M1453.48,590.75c-4.22,0-8.44-3.62-8.44-8.44v-25.95c0-4.22,4.22-8.44,8.44-8.44h25.95c4.82,0,8.44,4.22,8.44,8.44v25.95c0,4.82-3.62,8.44-8.44,8.44h-25.95Z"/>
    <path class="st0" d="M1453.48,637.23c-4.22,0-8.44-3.62-8.44-8.44v-25.95c0-4.22,4.22-8.44,8.44-8.44h25.95c4.82,0,8.44,4.22,8.44,8.44v25.95c0,4.82-3.62,8.44-8.44,8.44h-25.95Z"/>
    <path class="st0" d="M1453.48,683.72c-4.22,0-8.44-3.62-8.44-8.44v-25.95c0-4.22,4.22-8.44,8.44-8.44h25.95c4.82,0,8.44,4.22,8.44,8.44v25.95c0,4.82-3.62,8.44-8.44,8.44h-25.95Z"/>
    <path class="st0" d="M1500.57,358.29c-4.82,0-8.44-4.22-8.44-8.44v-25.95c0-4.82,3.62-8.44,8.44-8.44h25.95c4.22,0,8.44,3.62,8.44,8.44v25.95c0,4.22-4.22,8.44-8.44,8.44h-25.95Z"/>
    <path class="st0" d="M1500.57,404.8c-4.82,0-8.44-4.22-8.44-8.44v-25.95c0-4.82,3.62-8.44,8.44-8.44h25.95c4.22,0,8.44,3.62,8.44,8.44v25.95c0,4.22-4.22,8.44-8.44,8.44h-25.95Z"/>
    <path class="st0" d="M1500.57,451.29c-4.82,0-8.44-4.22-8.44-8.44v-25.95c0-4.82,3.62-8.44,8.44-8.44h25.95c4.22,0,8.44,3.62,8.44,8.44v25.95c0,4.22-4.22,8.44-8.44,8.44h-25.95Z"/>
    <path class="st0" d="M1500.57,497.78c-4.82,0-8.44-3.62-8.44-8.44v-25.95c0-4.82,3.62-8.44,8.44-8.44h25.95c4.22,0,8.44,3.62,8.44,8.44v25.95c0,4.82-4.22,8.44-8.44,8.44h-25.95Z"/>
    <path class="st0" d="M1500.57,544.26c-4.82,0-8.44-3.62-8.44-8.44v-25.95c0-4.22,3.62-8.44,8.44-8.44h25.95c4.22,0,8.44,4.22,8.44,8.44v25.95c0,4.82-4.22,8.44-8.44,8.44h-25.95Z"/>
    <path class="st0" d="M1500.57,590.75c-4.82,0-8.44-3.62-8.44-8.44v-25.95c0-4.22,3.62-8.44,8.44-8.44h25.95c4.22,0,8.44,4.22,8.44,8.44v25.95c0,4.82-4.22,8.44-8.44,8.44h-25.95Z"/>
    <path class="st0" d="M1500.57,637.23c-4.82,0-8.44-3.62-8.44-8.44v-25.95c0-4.22,3.62-8.44,8.44-8.44h25.95c4.22,0,8.44,4.22,8.44,8.44v25.95c0,4.82-4.22,8.44-8.44,8.44h-25.95Z"/>
    <path class="st0" d="M1500.57,683.72c-4.82,0-8.44-3.62-8.44-8.44v-25.95c0-4.22,3.62-8.44,8.44-8.44h25.95c4.22,0,8.44,4.22,8.44,8.44v25.95c0,4.82-4.22,8.44-8.44,8.44h-25.95Z"/>
    <path class="st0" d="M1547.65,358.29c-4.82,0-8.44-4.22-8.44-8.44v-25.95c0-4.82,3.62-8.44,8.44-8.44h25.35c4.82,0,8.44,3.62,8.44,8.44v25.95c0,4.22-3.62,8.44-8.44,8.44h-25.35Z"/>
    <path class="st0" d="M1547.65,404.8c-4.82,0-8.44-4.22-8.44-8.44v-25.95c0-4.82,3.62-8.44,8.44-8.44h25.35c4.82,0,8.44,3.62,8.44,8.44v25.95c0,4.22-3.62,8.44-8.44,8.44h-25.35Z"/>
    <path class="st0" d="M1547.65,544.62c-4.82,0-8.44-3.62-8.44-8.44v-25.95c0-4.22,3.62-8.44,8.44-8.44h25.35c4.82,0,8.44,4.22,8.44,8.44v25.95c0,4.82-3.62,8.44-8.44,8.44h-25.35Z"/>
    <path class="st0" d="M1547.65,591.11c-4.82,0-8.44-3.62-8.44-8.44v-25.95c0-4.22,3.62-8.44,8.44-8.44h25.35c4.82,0,8.44,4.22,8.44,8.44v25.95c0,4.82-3.62,8.44-8.44,8.44h-25.35Z"/>
    <path class="st0" d="M1594.16,358.29c-4.22,0-8.44-4.22-8.44-8.44v-25.95c0-4.82,4.22-8.44,8.44-8.44h25.95c4.82,0,8.44,3.62,8.44,8.44v25.95c0,4.22-3.62,8.44-8.44,8.44h-25.95Z"/>
    <path class="st0" d="M1594.16,404.8c-4.22,0-8.44-4.22-8.44-8.44v-25.95c0-4.82,4.22-8.44,8.44-8.44h25.95c4.82,0,8.44,3.62,8.44,8.44v25.95c0,4.22-3.62,8.44-8.44,8.44h-25.95Z"/>
    <path class="st0" d="M1594.16,544.62c-4.22,0-8.44-3.62-8.44-8.44v-25.95c0-4.22,4.22-8.44,8.44-8.44h25.95c4.82,0,8.44,4.22,8.44,8.44v25.95c0,4.82-3.62,8.44-8.44,8.44h-25.95Z"/>
    <path class="st0" d="M1594.16,591.11c-4.22,0-8.44-3.62-8.44-8.44v-25.95c0-4.22,4.22-8.44,8.44-8.44h25.95c4.82,0,8.44,4.22,8.44,8.44v25.95c0,4.82-3.62,8.44-8.44,8.44h-25.95Z"/>
    <path class="st0" d="M1641.25,358.29c-4.82,0-8.44-4.22-8.44-8.44v-25.95c0-4.82,3.62-8.44,8.44-8.44h25.95c4.22,0,8.44,3.62,8.44,8.44v25.95c0,4.22-4.22,8.44-8.44,8.44h-25.95Z"/>
    <path class="st0" d="M1641.25,404.8c-4.82,0-8.44-4.22-8.44-8.44v-25.95c0-4.82,3.62-8.44,8.44-8.44h25.95c4.22,0,8.44,3.62,8.44,8.44v25.95c0,4.22-4.22,8.44-8.44,8.44h-25.95Z"/>
    <path class="st0" d="M1641.25,544.62c-4.82,0-8.44-3.62-8.44-8.44v-25.95c0-4.22,3.62-8.44,8.44-8.44h25.95c4.22,0,8.44,4.22,8.44,8.44v25.95c0,4.82-4.22,8.44-8.44,8.44h-25.95Z"/>
    <path class="st0" d="M1641.25,591.11c-4.82,0-8.44-3.62-8.44-8.44v-25.95c0-4.22,3.62-8.44,8.44-8.44h25.95c4.22,0,8.44,4.22,8.44,8.44v25.95c0,4.82-4.22,8.44-8.44,8.44h-25.95Z"/>
    <path class="st0" d="M1688.33,358.29c-4.82,0-8.44-4.22-8.44-8.44v-25.95c0-4.82,3.62-8.44,8.44-8.44h25.35c4.82,0,8.44,3.62,8.44,8.44v25.95c0,4.22-3.62,8.44-8.44,8.44h-25.35Z"/>
    <path class="st0" d="M1688.33,404.8c-4.82,0-8.44-4.22-8.44-8.44v-25.95c0-4.82,3.62-8.44,8.44-8.44h25.35c4.82,0,8.44,3.62,8.44,8.44v25.95c0,4.22-3.62,8.44-8.44,8.44h-25.35Z"/>
    <path class="st0" d="M1688.33,544.62c-4.82,0-8.44-3.62-8.44-8.44v-25.95c0-4.22,3.62-8.44,8.44-8.44h25.35c4.82,0,8.44,4.22,8.44,8.44v25.95c0,4.82-3.62,8.44-8.44,8.44h-25.35Z"/>
    <path class="st0" d="M1688.33,591.11c-4.82,0-8.44-3.62-8.44-8.44v-25.95c0-4.22,3.62-8.44,8.44-8.44h25.35c4.82,0,8.44,4.22,8.44,8.44v25.95c0,4.82-3.62,8.44-8.44,8.44h-25.35Z"/>
    <path class="st0" d="M1734.82,357.69c-4.22,0-8.44-3.62-8.44-8.44v-25.35c0-1.82,1.8-3.62,3.62-3.62,1.2,0,1.8.6,2.42,1.2l30.8,30.8c1.82,1.2,1.82,3.62,0,4.82-.6.6-1.2.6-2.42.6h-25.98Z"/>
    <path class="st0" d="M1735.42,404.8c-4.82,0-8.44-4.22-8.44-8.44v-25.95c0-4.82,3.62-8.44,8.44-8.44h25.35c4.82,0,8.44,3.62,8.44,8.44v25.95c0,4.22-3.62,8.44-8.44,8.44h-25.35Z"/>
    <path class="st0" d="M1735.42,451.29c-4.82,0-8.44-4.22-8.44-8.44v-25.95c0-4.82,3.62-8.44,8.44-8.44h25.35c4.82,0,8.44,3.62,8.44,8.44v25.95c0,4.22-3.62,8.44-8.44,8.44h-25.35Z"/>
    <path class="st0" d="M1735.42,497.78c-4.82,0-8.44-4.22-8.44-8.44v-25.95c0-4.82,3.62-8.44,8.44-8.44h25.35c4.82,0,8.44,3.62,8.44,8.44v25.95c0,4.22-3.62,8.44-8.44,8.44h-25.35Z"/>
    <path class="st0" d="M1735.42,544.62c-4.82,0-8.44-3.62-8.44-8.44v-25.95c0-4.22,3.62-8.44,8.44-8.44h25.35c4.82,0,8.44,4.22,8.44,8.44v25.95c0,4.82-3.62,8.44-8.44,8.44h-25.35Z"/>
    <path class="st0" d="M1732.42,585.06c-1.2,1.82-3.62,1.82-4.82,0-.6-.6-.6-1.2-.6-2.42v-25.95c0-4.22,3.62-8.44,8.44-8.44h25.35c1.8,0,3.62,1.8,3.62,3.62,0,1.2-.6,1.8-1.2,2.42l-30.8,30.8v-.02Z"/>
    <path class="st0" d="M1781.93,404.8c-4.22,0-8.44-4.22-8.44-8.44v-25.95c0-1.82,1.82-3.62,3.62-3.62,1.2,0,1.82.6,2.42,1.2l30.8,30.8c1.8,1.2,1.2,3.62,0,4.82-.6.6-1.2,1.2-2.42,1.2h-25.98Z"/>
    <path class="st0" d="M1781.93,451.29c-4.22,0-8.44-4.22-8.44-8.44v-25.95c0-4.82,4.22-8.44,8.44-8.44h25.95c4.82,0,8.44,3.62,8.44,8.44v25.95c0,4.22-3.62,8.44-8.44,8.44h-25.95Z"/>
    <path class="st0" d="M1781.93,497.78c-4.22,0-8.44-3.62-8.44-8.44v-25.95c0-4.82,4.22-8.44,8.44-8.44h25.95c4.82,0,8.44,3.62,8.44,8.44v25.95c0,4.82-3.62,8.44-8.44,8.44h-25.95Z"/>
    <path class="st0" d="M1779.51,538.58c-1.82,1.8-3.62,1.8-4.82,0-1.2-.6-1.2-1.2-1.2-2.42v-25.95c0-4.22,3.62-8.44,8.44-8.44h25.95c1.82,0,3.02,1.82,3.02,3.62,0,1.2,0,1.82-.6,2.42l-30.8,30.8v-.02Z"/>
  </g>
  <path class="st1" d="M1199,560.96h-41.25c-5.78,0-11.3,2.3-15.37,6.38l-24.23,24.23h80.85v-30.61ZM1111.48,496.3h29.45v-36.31c0-12.02,9.74-21.75,21.75-21.75h36.29v-29.43h-87.52v87.52l.02-.02ZM1134.57,558.18c4.08-4.08,6.38-9.62,6.38-15.37v-38.76h-29.45v77.23l23.1-23.1h-.02ZM1294.27,496.3v-87.52h-87.52v29.43h40.3c12.02,0,21.75,9.74,21.75,21.75v36.31h25.45l.02.02ZM1104.46,589.03v-84.98h-89.47s-.06,87.5-.13,87.5h87.08l2.52-2.52h0ZM1302.01,401.03h88.07c-1.53-2.35-86.67-81.77-88.07-82.58v82.58ZM1104.46,318.45c-1.39.82-86.53,80.23-88.07,82.58h88.07s0-82.58,0-82.58ZM1302.01,599.32h87.31c-1.15,2.35-85.92,81.77-87.31,82.58v-82.58ZM1302.01,496.3h89.54v-85.7c0-.6-.05-1.2-.1-1.8h-89.44v87.52-.02ZM1014.93,496.3h89.54v-85.7c0-.6-.05-1.2-.1-1.8h-89.44v87.52-.02ZM1302.01,504.05v87.52h89.56v-87.52h-89.56ZM1199,599.32h-87.52v84.4c2.54,0,87.5,0,87.5,0v-84.4h.02ZM1294.27,599.32h-87.52v84.4h87.52v-84.4ZM1206.74,401.03h87.52v-85.58c-1.71,0-87.5,0-87.5,0v85.56l-.02.02ZM1111.48,401.03h87.52v-85.58h-87.52v85.58ZM1294.27,504.05h-25.45v35.16c0,12.02-9.74,21.75-21.75,21.75h-40.3v30.58h87.52v-87.52l-.02.02ZM1019.26,599.34h73.68l-21.8,21.8c-4.15,4.14-9.51,6.36-14.95,6.64-4.12.21-8.14-1.33-11.14-4.16l-25.8-24.28ZM1079.63,656.16c-2.81-2.65-4.56-6.26-4.79-10.12-.37-6.27,1.83-12.68,6.64-17.49l22.25-22.25v72.53l-24.09-22.68Z"/>
</svg>